<svg xmlns="http://www.w3.org/2000/svg" viewBox="0 0 480 270"><rect width="480" height="270" fill="#80a5a2"/><circle cx="375" cy="64" r="27" fill="#bdc896" opacity=".9"/><path d="M0 169 140 72 251 157 348 110 480 190v80H0z" fill="#52756e" opacity=".7"/><path d="M0 208q120-86 240-15t240-21v98H0z" fill="#bdc896"/><path d="M0 238q110-43 238-21t242-35v88H0z" fill="#52756e"/><path d="M90 195v-44l-16 22m16-12 17 9" stroke="#24332b" stroke-width="5" stroke-linecap="round"/><path d="M235 230v-48l-10-19h-14l-10 19v48m12-2v-24m8 24v-24" fill="#e2d4b0" stroke="#32423b" stroke-width="3"/><circle cx="218" cy="153" r="11" fill="#d8ba9e"/><rect x="326" y="175" width="83" height="49" rx="3" fill="#ccd4c0" opacity=".65"/><path d="m320 176 45-30 50 30" stroke="#35453c" stroke-width="5" fill="#526d5c"/><text x="15" y="252" fill="#e3ebda" opacity=".6" font-family="Segoe UI,sans-serif" font-size="11">BILIFLOW · DEMO ARTWORK</text></svg>